<svg width="26" height="28" viewBox="0 0 26 28" fill="none" xmlns="http://www.w3.org/2000/svg">
<g clip-path="url(#clip0_126_55)">
<path d="M24.6821 0.0297241L14.5566 8.76404L16.4295 3.61075L24.6821 0.0297241Z" fill="#E2761B" stroke="#E2761B" stroke-linecap="round" stroke-linejoin="round"/>
<path d="M1.30762 0.0297241L11.3517 8.8467L9.5705 3.61075L1.30762 0.0297241Z" fill="#E4761B" stroke="#E4761B" stroke-linecap="round" stroke-linejoin="round"/>
<path d="M21.0389 20.276L18.3423 25.0749L24.1123 26.9183L25.7711 20.3824L21.0389 20.276Z" fill="#E4761B" stroke="#E4761B" stroke-linecap="round" stroke-linejoin="round"/>
<path d="M0.239258 20.3824L1.88784 26.9183L7.65788 25.0749L4.96127 20.276L0.239258 20.3824Z" fill="#E4761B" stroke="#E4761B" stroke-linecap="round" stroke-linejoin="round"/>
<path d="M7.33226 12.1679L5.72412 14.9931L11.4532 15.2886L11.2499 8.13788L7.33226 12.1679Z" fill="#E4761B" stroke="#E4761B" stroke-linecap="round" stroke-linejoin="round"/>
<path d="M18.6576 12.1679L14.6892 8.05521L14.5566 15.2886L20.276 14.9931L18.6576 12.1679Z" fill="#E4761B" stroke="#E4761B" stroke-linecap="round" stroke-linejoin="round"/>
<path d="M7.65771 25.0749L11.0972 23.1244L8.12567 20.4294L7.65771 25.0749Z" fill="#E4761B" stroke="#E4761B" stroke-linecap="round" stroke-linejoin="round"/>
<path d="M14.8926 23.1244L18.3423 25.0749L17.8641 20.4294L14.8926 23.1244Z" fill="#E4761B" stroke="#E4761B" stroke-linecap="round" stroke-linejoin="round"/>
<path d="M18.3423 25.0749L14.8926 23.1244L15.1675 25.7367L15.1368 26.8357L18.3423 25.0749Z" fill="#D7C1B3" stroke="#D7C1B3" stroke-linecap="round" stroke-linejoin="round"/>
<path d="M7.65771 25.0749L10.8632 26.8357L10.8428 25.7367L11.0972 23.1244L7.65771 25.0749Z" fill="#D7C1B3" stroke="#D7C1B3" stroke-linecap="round" stroke-linejoin="round"/>
<path d="M10.9141 18.7043L8.04443 17.7231L10.0693 16.6474L10.9141 18.7043Z" fill="#233447" stroke="#233447" stroke-linecap="round" stroke-linejoin="round"/>
<path d="M15.0757 18.7043L15.9205 16.6474L17.9556 17.7231L15.0757 18.7043Z" fill="#233447" stroke="#233447" stroke-linecap="round" stroke-linejoin="round"/>
<path d="M7.65755 25.0749L8.14598 20.276L4.96094 20.3824L7.65755 25.0749Z" fill="#CD6116" stroke="#CD6116" stroke-linecap="round" stroke-linejoin="round"/>
<path d="M17.854 20.276L18.3424 25.0749L21.039 20.3824L17.854 20.276Z" fill="#CD6116" stroke="#CD6116" stroke-linecap="round" stroke-linejoin="round"/>
<path d="M20.276 14.9931L14.5566 15.2886L15.086 18.7043L15.9308 16.6474L17.9659 17.7231L20.276 14.9931Z" fill="#CD6116" stroke="#CD6116" stroke-linecap="round" stroke-linejoin="round"/>
<path d="M8.04442 17.7231L10.0796 16.6474L10.9141 18.7043L11.4532 15.2886L5.72412 14.9931L8.04442 17.7231Z" fill="#CD6116" stroke="#CD6116" stroke-linecap="round" stroke-linejoin="round"/>
<path d="M5.72412 14.9931L8.12583 20.4294L8.04442 17.7231L5.72412 14.9931Z" fill="#E4751F" stroke="#E4751F" stroke-linecap="round" stroke-linejoin="round"/>
<path d="M17.9661 17.7231L17.8643 20.4294L20.2762 14.9931L17.9661 17.7231Z" fill="#E4751F" stroke="#E4751F" stroke-linecap="round" stroke-linejoin="round"/>
<path d="M11.4532 15.2886L10.9141 18.7043L11.5858 22.7343L11.7384 17.4276L11.4532 15.2886Z" fill="#E4751F" stroke="#E4751F" stroke-linecap="round" stroke-linejoin="round"/>
<path d="M14.5566 15.2886L14.2822 17.4157L14.4041 22.7343L15.086 18.7043L14.5566 15.2886Z" fill="#E4751F" stroke="#E4751F" stroke-linecap="round" stroke-linejoin="round"/>
<path d="M15.0863 18.7043L14.4043 22.7343L14.8927 23.1244L17.8643 20.4294L17.9662 17.7231L15.0863 18.7043Z" fill="#F6851B" stroke="#F6851B" stroke-linecap="round" stroke-linejoin="round"/>
<path d="M8.04443 17.7231L8.12584 20.4294L11.0974 23.1244L11.5858 22.7343L10.9141 18.7043L8.04443 17.7231Z" fill="#F6851B" stroke="#F6851B" stroke-linecap="round" stroke-linejoin="round"/>
<path d="M15.1368 26.8357L15.1675 25.7367L14.913 25.4763H11.0767L10.8428 25.7367L10.8632 26.8357L7.65771 25.0749L8.77691 26.1381L11.046 27.9703H14.9437L17.2231 26.1381L18.3423 25.0749L15.1368 26.8357Z" fill="#C0AD9E" stroke="#C0AD9E" stroke-linecap="round" stroke-linejoin="round"/>
<path d="M14.8926 23.1244L14.4041 22.7343H11.5857L11.0972 23.1244L10.8428 25.7367L11.0767 25.4763H14.913L15.1675 25.7367L14.8926 23.1244Z" fill="#161616" stroke="#161616" stroke-linecap="round" stroke-linejoin="round"/>
<path d="M25.1097 9.33134L25.9744 4.50927L24.6822 0.0297241L14.8926 8.4685L18.6577 12.1679L23.9798 13.9762L25.1604 12.3807L24.6515 11.9556L25.4655 11.0927L24.8348 10.5254L25.6488 9.80409L25.1097 9.33134Z" fill="#763D16" stroke="#763D16" stroke-linecap="round" stroke-linejoin="round"/>
<path d="M0.0253906 4.50927L0.890129 9.33134L0.340772 9.80409L1.15482 10.5254L0.534301 11.0927L1.34835 11.9556L0.839443 12.3807L2.00983 13.9762L7.33189 12.1679L11.097 8.4685L1.30739 0.0297241L0.0253906 4.50927Z" fill="#763D16" stroke="#763D16" stroke-linecap="round" stroke-linejoin="round"/>
<path d="M23.9799 13.9762L18.6578 12.1679L20.2762 14.9931L17.8643 20.4294L21.0391 20.3825H25.7713L23.9799 13.9762Z" fill="#F6851B" stroke="#F6851B" stroke-linecap="round" stroke-linejoin="round"/>
<path d="M7.33226 12.1679L2.0102 13.9762L0.239258 20.3825H4.96127L8.12584 20.4294L5.72413 14.9931L7.33226 12.1679Z" fill="#F6851B" stroke="#F6851B" stroke-linecap="round" stroke-linejoin="round"/>
<path d="M14.5565 15.2886L14.8924 8.46853L16.4396 3.61078H9.57031L11.097 8.46853L11.4529 15.2886L11.5752 17.4395L11.5855 22.7343H14.4039L14.4244 17.4395L14.5565 15.2886Z" fill="#F6851B" stroke="#F6851B" stroke-linecap="round" stroke-linejoin="round"/>
</g>
<defs>
<clipPath id="clip0_126_55">
<rect width="26" height="28" fill="white"/>
</clipPath>
</defs>
</svg>
